<svg xmlns="http://www.w3.org/2000/svg" xmlns:xlink="http://www.w3.org/1999/xlink" version="1.1" viewBox="0 0 2366 2616" style="background: #111111"><g id="v-3"  transform="matrix(1,0,0,1,0,0)"><g id="j_463"    transform="translate(20,2571)"><g id="v-7247"><text  id="v-7248" font-size="22px" y="0.8em" xml:space="preserve" font-weight="normal" text-anchor="start" fill="#777777" pointer-events="none" font-family="Open Sans" transform="matrix(1,0,0,1,0,0)" display="none"><tspan id="v-7249"  dy="0em" x="0">Tuesday, 28 December 2021, 19:54 Greenwich Mean Time</tspan></text></g></g><g id="j_462"    transform="translate(20,2525)"><g id="v-7243"><text  id="v-7244" font-size="36px" y="0.8em" xml:space="preserve" font-weight="normal" text-anchor="start" fill="#bbbbbb" pointer-events="none" font-family="Open Sans" transform="matrix(1,0,0,1,0,0)" display="none"><tspan id="v-7245"  dy="0em" x="0">[System Landscape]</tspan></text></g></g><g id="j_445"    transform="translate(957,2107)" style="" ><g  id="v-6925" style="opacity: 1;"><rect  id="v-6926" rx="20" ry="20" stroke="#0f5eaa" stroke-width="2" pointer-events="visiblePainted" fill="#1168bd" width="450" height="300"></rect><text  id="v-6927" font-size="34" y="0.8em" xml:space="preserve" font-weight="bold" text-anchor="middle" pointer-events="visible" font-family="Open Sans" fill="#ffffff" transform="matrix(1,0,0,1,225,116.9)"><tspan id="v-6932"  dy="0em" x="0">Backend Server</tspan></text><text  id="v-6928" font-size="19" y="0.8em" xml:space="preserve" text-anchor="middle" font-family="Open Sans" fill="#ffffff" transform="matrix(1,0,0,1,225,159.4)"><tspan id="v-6933"  dy="0em" x="0">[Software System]</tspan></text><text  id="v-6929" font-size="24" y="0.8em" display="none" xml:space="preserve" text-anchor="middle" font-family="Open Sans" fill="#ffffff" transform="matrix(1,0,0,1,225,183.1)"><tspan id="v-6934"  dy="0em" x="0" style="fill-opacity: 0; stroke-opacity: 0;">-</tspan></text><text  id="v-6930" font-weight="bold" text-anchor="middle" font-family="Open Sans" fill="#ffffff" font-size="24" transform="matrix(1,0,0,1,225,270)" y="0.8em" xml:space="preserve" display="none"><tspan id="v-6935"  dy="0em" x="0">+</tspan></text><image  id="v-6931"></image></g></g><g id="j_446"    transform="translate(1295,207)" style=""><g  id="v-6937" style="opacity: 1;"><rect  x="0" y="160" width="400" height="240" rx="70" id="v-6939" stroke="#073b6f" stroke-width="2" pointer-events="visiblePainted" fill="#08427b"></rect><circle  cx="200" cy="88.88888888888889" r="88.88888888888889" id="v-6938" stroke="#073b6f" stroke-width="2" pointer-events="visiblePainted" fill="#08427b"></circle><line  x1="80" y1="266.6666666666667" x2="80" y2="400" style="stroke-width:2px" id="v-6945" stroke="#073b6f"></line><line  x1="320" y1="266.6666666666667" x2="320" y2="400" style="stroke-width:2px" id="v-6946" stroke="#073b6f"></line><text  id="v-6940" font-size="34px" y="0.8em" xml:space="preserve" font-weight="bold" text-anchor="middle" pointer-events="visible" font-family="Open Sans" fill="#ffffff" transform="matrix(1,0,0,1,200,246.9)"><tspan id="v-6947"  dy="0em" x="0">pi-top User</tspan></text><text  id="v-6941" font-size="19px" y="0.8em" xml:space="preserve" text-anchor="middle" font-family="Open Sans" fill="#ffffff" transform="matrix(1,0,0,1,200,289.4)"><tspan id="v-6948"  dy="0em" x="0">[Person]</tspan></text><text  id="v-6942" font-size="24px" y="0.8em" display="none" xml:space="preserve" text-anchor="middle" font-family="Open Sans" fill="#ffffff" transform="matrix(1,0,0,1,200,313.1)"><tspan id="v-6949"  dy="0em" x="0" style="fill-opacity: 0; stroke-opacity: 0;">-</tspan></text><text  id="v-6943" font-weight="bold" text-anchor="middle" font-family="Open Sans" fill="#ffffff" font-size="24" transform="matrix(1,0,0,1,200,371.2)" display="none"></text><image  id="v-6944"></image></g></g><g id="j_447"    transform="translate(266,207)" style=""><g  id="v-6953" style="opacity: 1;"><rect  x="0" y="160" width="400" height="240" rx="70" id="v-6955" stroke="#073b6f" stroke-width="2" pointer-events="visiblePainted" fill="#08427b"></rect><circle  cx="200" cy="88.88888888888889" r="88.88888888888889" id="v-6954" stroke="#073b6f" stroke-width="2" pointer-events="visiblePainted" fill="#08427b"></circle><line  x1="80" y1="266.6666666666667" x2="80" y2="400" style="stroke-width:2px" id="v-6961" stroke="#073b6f"></line><line  x1="320" y1="266.6666666666667" x2="320" y2="400" style="stroke-width:2px" id="v-6962" stroke="#073b6f"></line><text  id="v-6956" font-size="34px" y="0.8em" xml:space="preserve" font-weight="bold" text-anchor="middle" pointer-events="visible" font-family="Open Sans" fill="#ffffff" transform="matrix(1,0,0,1,200,246.9)"><tspan id="v-6963"  dy="0em" x="0">pi-topOS Developer</tspan></text><text  id="v-6957" font-size="19px" y="0.8em" xml:space="preserve" text-anchor="middle" font-family="Open Sans" fill="#ffffff" transform="matrix(1,0,0,1,200,289.4)"><tspan id="v-6964"  dy="0em" x="0">[Person]</tspan></text><text  id="v-6958" font-size="24px" y="0.8em" display="none" xml:space="preserve" text-anchor="middle" font-family="Open Sans" fill="#ffffff" transform="matrix(1,0,0,1,200,313.1)"><tspan id="v-6965"  dy="0em" x="0" style="fill-opacity: 0; stroke-opacity: 0;">-</tspan></text><text  id="v-6959" font-weight="bold" text-anchor="middle" font-family="Open Sans" fill="#ffffff" font-size="24" transform="matrix(1,0,0,1,200,371.2)" display="none"></text><image  id="v-6960"></image></g></g><g id="j_448"    transform="translate(1707,2107)" style="" ><g  id="v-6969" style="opacity: 1;"><rect  id="v-6970" rx="20" ry="20" stroke="#0f5eaa" stroke-width="2" pointer-events="visiblePainted" fill="#1168bd" width="450" height="300"></rect><text  id="v-6971" font-size="34" y="0.8em" xml:space="preserve" font-weight="bold" text-anchor="middle" pointer-events="visible" font-family="Open Sans" fill="#ffffff" transform="matrix(1,0,0,1,225,116.9)"><tspan id="v-6976"  dy="0em" x="0">pi-top [4] Peripherals</tspan></text><text  id="v-6972" font-size="19" y="0.8em" xml:space="preserve" text-anchor="middle" font-family="Open Sans" fill="#ffffff" transform="matrix(1,0,0,1,225,159.4)"><tspan id="v-6977"  dy="0em" x="0">[Software System]</tspan></text><text  id="v-6973" font-size="24" y="0.8em" display="none" xml:space="preserve" text-anchor="middle" font-family="Open Sans" fill="#ffffff" transform="matrix(1,0,0,1,225,183.1)"><tspan id="v-6978"  dy="0em" x="0" style="fill-opacity: 0; stroke-opacity: 0;">-</tspan></text><text  id="v-6974" font-weight="bold" text-anchor="middle" font-family="Open Sans" fill="#ffffff" font-size="24" transform="matrix(1,0,0,1,225,270)" y="0.8em" xml:space="preserve" display="none"><tspan id="v-6979"  dy="0em" x="0">+</tspan></text><image  id="v-6975"></image></g></g><g id="j_449"    transform="translate(207,2107)" style="" ><g  id="v-6981" style="opacity: 1;"><rect  id="v-6982" rx="20" ry="20" stroke="#0f5eaa" stroke-width="2" pointer-events="visiblePainted" fill="#1168bd" width="450" height="300"></rect><text  id="v-6983" font-size="34" y="0.8em" xml:space="preserve" font-weight="bold" text-anchor="middle" pointer-events="visible" font-family="Open Sans" fill="#ffffff" transform="matrix(1,0,0,1,225,116.9)"><tspan id="v-6988"  dy="0em" x="0">APT Server</tspan></text><text  id="v-6984" font-size="19" y="0.8em" xml:space="preserve" text-anchor="middle" font-family="Open Sans" fill="#ffffff" transform="matrix(1,0,0,1,225,159.4)"><tspan id="v-6989"  dy="0em" x="0">[Software System]</tspan></text><text  id="v-6985" font-size="24" y="0.8em" display="none" xml:space="preserve" text-anchor="middle" font-family="Open Sans" fill="#ffffff" transform="matrix(1,0,0,1,225,183.1)"><tspan id="v-6990"  dy="0em" x="0" style="fill-opacity: 0; stroke-opacity: 0;">-</tspan></text><text  id="v-6986" font-weight="bold" text-anchor="middle" font-family="Open Sans" fill="#ffffff" font-size="24" transform="matrix(1,0,0,1,225,270)" y="0.8em" xml:space="preserve" display="none"><tspan id="v-6991"  dy="0em" x="0">+</tspan></text><image  id="v-6987"></image></g></g><g id="j_450"    transform="translate(936,1507)" style="" ><g  id="v-6993" style="opacity: 1;"><rect  id="v-6994" rx="20" ry="20" stroke="#0f5eaa" stroke-width="2" pointer-events="visiblePainted" fill="#1168bd" width="450" height="300"></rect><text  id="v-6995" font-size="34" y="0.8em" xml:space="preserve" font-weight="bold" text-anchor="middle" pointer-events="visible" font-family="Open Sans" fill="#ffffff" transform="matrix(1,0,0,1,225,116.9)"><tspan id="v-7000"  dy="0em" x="0">pi-top [4]</tspan></text><text  id="v-6996" font-size="19" y="0.8em" xml:space="preserve" text-anchor="middle" font-family="Open Sans" fill="#ffffff" transform="matrix(1,0,0,1,225,159.4)"><tspan id="v-7001"  dy="0em" x="0">[Software System]</tspan></text><text  id="v-6997" font-size="24" y="0.8em" display="none" xml:space="preserve" text-anchor="middle" font-family="Open Sans" fill="#ffffff" transform="matrix(1,0,0,1,225,183.1)"><tspan id="v-7002"  dy="0em" x="0" style="fill-opacity: 0; stroke-opacity: 0;">-</tspan></text><text  id="v-6998" font-weight="bold" text-anchor="middle" font-family="Open Sans" fill="#ffffff" font-size="24" transform="matrix(1,0,0,1,225,270)" y="0.8em" xml:space="preserve" display="none"><tspan id="v-7003"  dy="0em" x="0">+</tspan></text><image  id="v-6999"></image></g></g><g id="j_451"    transform="translate(241,907)" style="" ><g  id="v-7005" style="opacity: 1;"><rect  id="v-7006" rx="20" ry="20" stroke="#0f5eaa" stroke-width="2" pointer-events="visiblePainted" fill="#1168bd" width="450" height="300"></rect><text  id="v-7007" font-size="34" y="0.8em" xml:space="preserve" font-weight="bold" text-anchor="middle" pointer-events="visible" font-family="Open Sans" fill="#ffffff" transform="matrix(1,0,0,1,225,116.9)"><tspan id="v-7012"  dy="0em" x="0">GitHub CI</tspan></text><text  id="v-7008" font-size="19" y="0.8em" xml:space="preserve" text-anchor="middle" font-family="Open Sans" fill="#ffffff" transform="matrix(1,0,0,1,225,159.4)"><tspan id="v-7013"  dy="0em" x="0">[Software System]</tspan></text><text  id="v-7009" font-size="24" y="0.8em" display="none" xml:space="preserve" text-anchor="middle" font-family="Open Sans" fill="#ffffff" transform="matrix(1,0,0,1,225,183.1)"><tspan id="v-7014"  dy="0em" x="0" style="fill-opacity: 0; stroke-opacity: 0;">-</tspan></text><text  id="v-7010" font-weight="bold" text-anchor="middle" font-family="Open Sans" fill="#ffffff" font-size="24" transform="matrix(1,0,0,1,225,270)" y="0.8em" xml:space="preserve" display="none"><tspan id="v-7015"  dy="0em" x="0">+</tspan></text><image  id="v-7011"></image></g></g><g id="j_452"    transform="translate(1607,907)" style="" ><g  id="v-7019" style="opacity: 1;"><rect  id="v-7020" rx="20" ry="20" stroke="#0f5eaa" stroke-width="2" pointer-events="visiblePainted" fill="#1168bd" width="450" height="300"></rect><text  id="v-7021" font-size="34" y="0.8em" xml:space="preserve" font-weight="bold" text-anchor="middle" pointer-events="visible" font-family="Open Sans" fill="#ffffff" transform="matrix(1,0,0,1,225,95.6)"><tspan id="v-7026"  dy="0em" x="0">Further</tspan><tspan id="v-7027"  dy="1.2em" x="0">(further.pi-top.com)</tspan></text><text  id="v-7022" font-size="19" y="0.8em" xml:space="preserve" text-anchor="middle" font-family="Open Sans" fill="#ffffff" transform="matrix(1,0,0,1,225,180.6)"><tspan id="v-7028"  dy="0em" x="0">[Software System]</tspan></text><text  id="v-7023" font-size="24" y="0.8em" display="none" xml:space="preserve" text-anchor="middle" font-family="Open Sans" fill="#ffffff" transform="matrix(1,0,0,1,225,204.4)"><tspan id="v-7029"  dy="0em" x="0" style="fill-opacity: 0; stroke-opacity: 0;">-</tspan></text><text  id="v-7024" font-weight="bold" text-anchor="middle" font-family="Open Sans" fill="#ffffff" font-size="24" transform="matrix(1,0,0,1,225,270)" y="0.8em" xml:space="preserve" display="none"><tspan id="v-7030"  dy="0em" x="0">+</tspan></text><image  id="v-7025"></image></g></g><g id="j_453"   ><path  stroke="#aaaaaa" id="v-7052" stroke-width="2" stroke-dasharray="30 30" fill="none" d="M 1166 1807 1176 2087" style="opacity: 1;"></path><path  fill="black" stroke="black" transform="translate(1166,1807) scale(1,1) rotate(87.90008544921875)"></path><path  fill="#aaaaaa" stroke="#aaaaaa" id="v-7054" d="M 20 0 L 0 10 L 20 20 z" transform="translate(1167.006681241507,2107.366541323254) scale(1,1) rotate(-92.09990692138672)" style="opacity: 1;"></path><path  id="v-7053" fill="none" d="M 1166 1807 1176 2087" style=""></path><title ></title><g ><g  id="v-7038" label-idx="0" cursor="move" transform="translate(1171, 1947)" style="opacity: 1;"><rect id="v-7040" fill="#111111" rx="3" ry="3" stroke="#111111" stroke-width="20px" pointer-events="none" width="136.70230102539062" height="89.13153076171875" transform="matrix(1,0,0,1,-68.4,-44.5)"></rect><text id="v-7039" font-size="24px" y="0.8em" xml:space="preserve" text-anchor="middle" pointer-events="none" fill="#aaaaaa" font-family="Open Sans" font-weight="normal" transform="matrix(1,0,0,1,0,-38.5)"><tspan id="v-7041"  dy="0em" x="0">Determines</tspan><tspan id="v-7042"  dy="1.2em" x="0">update logic</tspan><tspan id="v-7043"  dy="1.2em" x="0">based</tspan></text></g><g  id="v-7044" label-idx="1" cursor="move" transform="translate(1171, 2004.6)" style="opacity: 1;"><rect id="v-7046" fill="#111111" rx="3" ry="3" pointer-events="none" width="0" height="0" transform="matrix(1,0,0,1,0,0)"></rect><text id="v-7045" font-size="19px" y="0.8em" display="none" xml:space="preserve" text-anchor="middle" pointer-events="none" fill="#aaaaaa" font-family="Open Sans" font-weight="normal" transform="matrix(1,0,0,1,0,0)"><tspan id="v-7047"  dy="0em" x="0" style="fill-opacity: 0; stroke-opacity: 0;">-</tspan></text></g><g  id="v-7048" label-idx="2" cursor="move" transform="translate(1171, 2028.6)" style="opacity: 1;"><rect id="v-7050" fill="#111111" rx="3" ry="3" pointer-events="none"  display="none" width="0" height="0" transform="matrix(1,0,0,1,0,0)"></rect><text id="v-7049" font-size="19px" y="0.8em" display="none" xml:space="preserve" text-anchor="middle" pointer-events="none" fill="#aaaaaa" font-family="Open Sans" font-weight="normal"  transform="matrix(1,0,0,1,0,0)"><tspan id="v-7051"  dy="0em" x="0" style="fill-opacity: 0; stroke-opacity: 0;">-</tspan></text></g></g><g  display="none"></g><g  id="v-7056" display="none"><g  id="v-7035"><path  end="source" d="M 26 0 L 0 13 L 26 26 z"></path></g><g  id="v-7036"><path  end="target" d="M 26 0 L 0 13 L 26 26 z"></path></g></g><g  id="v-7055" display="none"><g  id="v-7034" transform="translate(1167.4276123046875, 1846.9744873046875) "><g  event="remove"><circle r="11"></circle><path transform="scale(.8) translate(-16, -16)" d="M24.778,21.419 19.276,15.917 24.777,10.415 21.949,7.585 16.447,13.087 10.945,7.585 8.117,10.415 13.618,15.917 8.116,21.419 10.946,24.248 16.447,18.746 21.948,24.248z"></path><title>Remove link.</title></g><g  event="link:options"><circle r="11" transform="translate(25)"></circle><path fill="white" transform="scale(.55) translate(29, -16)" d="M31.229,17.736c0.064-0.571,0.104-1.148,0.104-1.736s-0.04-1.166-0.104-1.737l-4.377-1.557c-0.218-0.716-0.504-1.401-0.851-2.05l1.993-4.192c-0.725-0.91-1.549-1.734-2.458-2.459l-4.193,1.994c-0.647-0.347-1.334-0.632-2.049-0.849l-1.558-4.378C17.165,0.708,16.588,0.667,16,0.667s-1.166,0.041-1.737,0.105L12.707,5.15c-0.716,0.217-1.401,0.502-2.05,0.849L6.464,4.005C5.554,4.73,4.73,5.554,4.005,6.464l1.994,4.192c-0.347,0.648-0.632,1.334-0.849,2.05l-4.378,1.557C0.708,14.834,0.667,15.412,0.667,16s0.041,1.165,0.105,1.736l4.378,1.558c0.217,0.715,0.502,1.401,0.849,2.049l-1.994,4.193c0.725,0.909,1.549,1.733,2.459,2.458l4.192-1.993c0.648,0.347,1.334,0.633,2.05,0.851l1.557,4.377c0.571,0.064,1.148,0.104,1.737,0.104c0.588,0,1.165-0.04,1.736-0.104l1.558-4.377c0.715-0.218,1.399-0.504,2.049-0.851l4.193,1.993c0.909-0.725,1.733-1.549,2.458-2.458l-1.993-4.193c0.347-0.647,0.633-1.334,0.851-2.049L31.229,17.736zM16,20.871c-2.69,0-4.872-2.182-4.872-4.871c0-2.69,2.182-4.872,4.872-4.872c2.689,0,4.871,2.182,4.871,4.872C20.871,18.689,18.689,20.871,16,20.871z"></path><title>Link options.</title></g></g></g></g><g id="j_454"   ><path  stroke="#aaaaaa" id="v-7077" stroke-width="2" stroke-dasharray="30 30" fill="none" d="M 1354 1807 1723 2095" style="opacity: 1;"></path><path  fill="black" stroke="black" transform="translate(1354,1807) scale(1,1) rotate(37.92645263671875)"></path><path  fill="#aaaaaa" stroke="#aaaaaa" id="v-7079" d="M 20 0 L 0 10 L 20 20 z" transform="translate(1732.8534442462465,2114.8880144637246) scale(1,1) rotate(-142.0735321044922)" style="opacity: 1;"></path><path  id="v-7078" fill="none" d="M 1354 1807 1723 2095" style=""></path><title ></title><g ><g  id="v-7064" label-idx="0" cursor="move" transform="translate(1538.5, 1951)" style="opacity: 1;"><rect id="v-7066" fill="#111111" rx="3" ry="3" stroke="#111111" stroke-width="20px" pointer-events="none" width="105.630615234375" height="60.331525802612305" transform="matrix(1,0,0,1,-52.8,-30.1)"></rect><text id="v-7065" font-size="24px" y="0.8em" xml:space="preserve" text-anchor="middle" pointer-events="none" fill="#aaaaaa" font-family="Open Sans" font-weight="normal" transform="matrix(1,0,0,1,0,-24.1)"><tspan id="v-7067"  dy="0em" x="0">Updates</tspan><tspan id="v-7068"  dy="1.2em" x="0">Firmware</tspan></text></g><g  id="v-7069" label-idx="1" cursor="move" transform="translate(1538.5, 1994.2)" style="opacity: 1;"><rect id="v-7071" fill="#111111" rx="3" ry="3" pointer-events="none" width="40.563995361328125" height="27.32732391357422" transform="matrix(1,0,0,1,-20.3,-13.6)"></rect><text id="v-7070" font-size="19px" y="0.8em" xml:space="preserve" text-anchor="middle" pointer-events="none" fill="#aaaaaa" font-family="Open Sans" font-weight="normal" transform="matrix(1,0,0,1,0,-7.8)"><tspan id="v-7072"  dy="0em" x="0">[I2C]</tspan></text></g><g  id="v-7073" label-idx="2" cursor="move" transform="translate(1538.5, 2018.2)" style="opacity: 1;"><rect id="v-7075" fill="#111111" rx="3" ry="3" pointer-events="none"  display="none" width="0" height="0" transform="matrix(1,0,0,1,0,0)"></rect><text id="v-7074" font-size="19px" y="0.8em" display="none" xml:space="preserve" text-anchor="middle" pointer-events="none" fill="#aaaaaa" font-family="Open Sans" font-weight="normal"  transform="matrix(1,0,0,1,0,0)"><tspan id="v-7076"  dy="0em" x="0" style="fill-opacity: 0; stroke-opacity: 0;">-</tspan></text></g></g><g  display="none"></g><g  id="v-7081" display="none"><g  id="v-7061"><path  end="source" d="M 26 0 L 0 13 L 26 26 z"></path></g><g  id="v-7062"><path  end="target" d="M 26 0 L 0 13 L 26 26 z"></path></g></g><g  id="v-7080" display="none"><g  id="v-7060" transform="translate(1385.53271484375, 1831.61083984375) "><g  event="remove"><circle r="11"></circle><path transform="scale(.8) translate(-16, -16)" d="M24.778,21.419 19.276,15.917 24.777,10.415 21.949,7.585 16.447,13.087 10.945,7.585 8.117,10.415 13.618,15.917 8.116,21.419 10.946,24.248 16.447,18.746 21.948,24.248z"></path><title>Remove link.</title></g><g  event="link:options"><circle r="11" transform="translate(25)"></circle><path fill="white" transform="scale(.55) translate(29, -16)" d="M31.229,17.736c0.064-0.571,0.104-1.148,0.104-1.736s-0.04-1.166-0.104-1.737l-4.377-1.557c-0.218-0.716-0.504-1.401-0.851-2.05l1.993-4.192c-0.725-0.91-1.549-1.734-2.458-2.459l-4.193,1.994c-0.647-0.347-1.334-0.632-2.049-0.849l-1.558-4.378C17.165,0.708,16.588,0.667,16,0.667s-1.166,0.041-1.737,0.105L12.707,5.15c-0.716,0.217-1.401,0.502-2.05,0.849L6.464,4.005C5.554,4.73,4.73,5.554,4.005,6.464l1.994,4.192c-0.347,0.648-0.632,1.334-0.849,2.05l-4.378,1.557C0.708,14.834,0.667,15.412,0.667,16s0.041,1.165,0.105,1.736l4.378,1.558c0.217,0.715,0.502,1.401,0.849,2.049l-1.994,4.193c0.725,0.909,1.549,1.733,2.459,2.458l4.192-1.993c0.648,0.347,1.334,0.633,2.05,0.851l1.557,4.377c0.571,0.064,1.148,0.104,1.737,0.104c0.588,0,1.165-0.04,1.736-0.104l1.558-4.377c0.715-0.218,1.399-0.504,2.049-0.851l4.193,1.993c0.909-0.725,1.733-1.549,2.458-2.458l-1.993-4.193c0.347-0.647,0.633-1.334,0.851-2.049L31.229,17.736zM16,20.871c-2.69,0-4.872-2.182-4.872-4.871c0-2.69,2.182-4.872,4.872-4.872c2.689,0,4.871,2.182,4.871,4.872C20.871,18.689,18.689,20.871,16,20.871z"></path><title>Link options.</title></g></g></g></g><g id="j_455"   ><path  stroke="#aaaaaa" id="v-7099" stroke-width="2" stroke-dasharray="30 30" fill="none" d="M 1599 607 1745 889" style="opacity: 1;"></path><path  fill="black" stroke="black" transform="translate(1599,607) scale(1,1) rotate(62.6761169433594)"></path><path  fill="#aaaaaa" stroke="#aaaaaa" id="v-7101" d="M 20 0 L 0 10 L 20 20 z" transform="translate(1745.1157313445465,911.5901821974728) scale(1,1) rotate(-117.32389068603516)" style="opacity: 1;"></path><path  id="v-7100" fill="none" d="M 1599 607 1745 889" style=""></path><title ></title><g ><g  id="v-7087" label-idx="0" cursor="move" transform="translate(1672, 748)" style="opacity: 1;"><rect id="v-7089" fill="#111111" rx="3" ry="3" stroke="#111111" stroke-width="20px" pointer-events="none" width="53.83351516723633" height="31.531527519226074" transform="matrix(1,0,0,1,-26.9,-15.7)"></rect><text id="v-7088" font-size="24px" y="0.8em" xml:space="preserve" text-anchor="middle" pointer-events="none" fill="#aaaaaa" font-family="Open Sans" font-weight="normal" transform="matrix(1,0,0,1,0,-9.7)"><tspan id="v-7090"  dy="0em" x="0">Uses</tspan></text></g><g  id="v-7091" label-idx="1" cursor="move" transform="translate(1672, 779.2)" style="opacity: 1;"><rect id="v-7093" fill="#111111" rx="3" ry="3" pointer-events="none" width="0" height="0" transform="matrix(1,0,0,1,0,0)"></rect><text id="v-7092" font-size="19px" y="0.8em" display="none" xml:space="preserve" text-anchor="middle" pointer-events="none" fill="#aaaaaa" font-family="Open Sans" font-weight="normal" transform="matrix(1,0,0,1,0,0)"><tspan id="v-7094"  dy="0em" x="0" style="fill-opacity: 0; stroke-opacity: 0;">-</tspan></text></g><g  id="v-7095" label-idx="2" cursor="move" transform="translate(1672, 803.2)" style="opacity: 1;"><rect id="v-7097" fill="#111111" rx="3" ry="3" pointer-events="none"  display="none" width="0" height="0" transform="matrix(1,0,0,1,0,0)"></rect><text id="v-7096" font-size="19px" y="0.8em" display="none" xml:space="preserve" text-anchor="middle" pointer-events="none" fill="#aaaaaa" font-family="Open Sans" font-weight="normal"  transform="matrix(1,0,0,1,0,0)"><tspan id="v-7098"  dy="0em" x="0" style="fill-opacity: 0; stroke-opacity: 0;">-</tspan></text></g></g><g  display="none"></g><g  id="v-7103" display="none"><g  id="v-7084"><path  end="source" d="M 26 0 L 0 13 L 26 26 z"></path></g><g  id="v-7085"><path  end="target" d="M 26 0 L 0 13 L 26 26 z"></path></g></g><g  id="v-7102" display="none"><g  id="v-7083" transform="translate(1617.390625, 642.5216064453125) "><g  event="remove"><circle r="11"></circle><path transform="scale(.8) translate(-16, -16)" d="M24.778,21.419 19.276,15.917 24.777,10.415 21.949,7.585 16.447,13.087 10.945,7.585 8.117,10.415 13.618,15.917 8.116,21.419 10.946,24.248 16.447,18.746 21.948,24.248z"></path><title>Remove link.</title></g><g  event="link:options"><circle r="11" transform="translate(25)"></circle><path fill="white" transform="scale(.55) translate(29, -16)" d="M31.229,17.736c0.064-0.571,0.104-1.148,0.104-1.736s-0.04-1.166-0.104-1.737l-4.377-1.557c-0.218-0.716-0.504-1.401-0.851-2.05l1.993-4.192c-0.725-0.91-1.549-1.734-2.458-2.459l-4.193,1.994c-0.647-0.347-1.334-0.632-2.049-0.849l-1.558-4.378C17.165,0.708,16.588,0.667,16,0.667s-1.166,0.041-1.737,0.105L12.707,5.15c-0.716,0.217-1.401,0.502-2.05,0.849L6.464,4.005C5.554,4.73,4.73,5.554,4.005,6.464l1.994,4.192c-0.347,0.648-0.632,1.334-0.849,2.05l-4.378,1.557C0.708,14.834,0.667,15.412,0.667,16s0.041,1.165,0.105,1.736l4.378,1.558c0.217,0.715,0.502,1.401,0.849,2.049l-1.994,4.193c0.725,0.909,1.549,1.733,2.459,2.458l4.192-1.993c0.648,0.347,1.334,0.633,2.05,0.851l1.557,4.377c0.571,0.064,1.148,0.104,1.737,0.104c0.588,0,1.165-0.04,1.736-0.104l1.558-4.377c0.715-0.218,1.399-0.504,2.049-0.851l4.193,1.993c0.909-0.725,1.733-1.549,2.458-2.458l-1.993-4.193c0.347-0.647,0.633-1.334,0.851-2.049L31.229,17.736zM16,20.871c-2.69,0-4.872-2.182-4.872-4.871c0-2.69,2.182-4.872,4.872-4.872c2.689,0,4.871,2.182,4.871,4.872C20.871,18.689,18.689,20.871,16,20.871z"></path><title>Link options.</title></g></g></g></g><g id="j_456"   ><path  stroke="#aaaaaa" id="v-7124" stroke-width="2" stroke-dasharray="30 30" fill="none" d="M 979 1807 629 2094" style="opacity: 1;"></path><path  fill="black" stroke="black" transform="translate(979,1807) scale(1,1) rotate(-219.41738891601562)"></path><path  fill="#aaaaaa" stroke="#aaaaaa" id="v-7126" d="M 20 0 L 0 10 L 20 20 z" transform="translate(607.6503436908579,2099.2746325894163) scale(1,1) rotate(-39.41739273071289)" style="opacity: 1;"></path><path  id="v-7125" fill="none" d="M 979 1807 629 2094" style=""></path><title ></title><g ><g  id="v-7111" label-idx="0" cursor="move" transform="translate(804, 1950.5)" style="opacity: 1;"><rect id="v-7113" fill="#111111" rx="3" ry="3" stroke="#111111" stroke-width="20px" pointer-events="none" width="154.8000946044922" height="60.331525802612305" transform="matrix(1,0,0,1,-77.4,-30.1)"></rect><text id="v-7112" font-size="24px" y="0.8em" xml:space="preserve" text-anchor="middle" pointer-events="none" fill="#aaaaaa" font-family="Open Sans" font-weight="normal" transform="matrix(1,0,0,1,0,-24.1)"><tspan id="v-7114"  dy="0em" x="0">Gets software</tspan><tspan id="v-7115"  dy="1.2em" x="0">updates</tspan></text></g><g  id="v-7116" label-idx="1" cursor="move" transform="translate(804, 1993.7)" style="opacity: 1;"><rect id="v-7118" fill="#111111" rx="3" ry="3" pointer-events="none" width="0" height="0" transform="matrix(1,0,0,1,0,0)"></rect><text id="v-7117" font-size="19px" y="0.8em" display="none" xml:space="preserve" text-anchor="middle" pointer-events="none" fill="#aaaaaa" font-family="Open Sans" font-weight="normal" transform="matrix(1,0,0,1,0,0)"><tspan id="v-7119"  dy="0em" x="0" style="fill-opacity: 0; stroke-opacity: 0;">-</tspan></text></g><g  id="v-7120" label-idx="2" cursor="move" transform="translate(804, 2017.7)" style="opacity: 1;"><rect id="v-7122" fill="#111111" rx="3" ry="3" pointer-events="none"  display="none" width="0" height="0" transform="matrix(1,0,0,1,0,0)"></rect><text id="v-7121" font-size="19px" y="0.8em" display="none" xml:space="preserve" text-anchor="middle" pointer-events="none" fill="#aaaaaa" font-family="Open Sans" font-weight="normal"  transform="matrix(1,0,0,1,0,0)"><tspan id="v-7123"  dy="0em" x="0" style="fill-opacity: 0; stroke-opacity: 0;">-</tspan></text></g></g><g  display="none"></g><g  id="v-7128" display="none"><g  id="v-7108"><path  end="source" d="M 26 0 L 0 13 L 26 26 z"></path></g><g  id="v-7109"><path  end="target" d="M 26 0 L 0 13 L 26 26 z"></path></g></g><g  id="v-7127" display="none"><g  id="v-7107" transform="translate(948.0693359375, 1832.36328125) "><g  event="remove"><circle r="11"></circle><path transform="scale(.8) translate(-16, -16)" d="M24.778,21.419 19.276,15.917 24.777,10.415 21.949,7.585 16.447,13.087 10.945,7.585 8.117,10.415 13.618,15.917 8.116,21.419 10.946,24.248 16.447,18.746 21.948,24.248z"></path><title>Remove link.</title></g><g  event="link:options"><circle r="11" transform="translate(25)"></circle><path fill="white" transform="scale(.55) translate(29, -16)" d="M31.229,17.736c0.064-0.571,0.104-1.148,0.104-1.736s-0.04-1.166-0.104-1.737l-4.377-1.557c-0.218-0.716-0.504-1.401-0.851-2.05l1.993-4.192c-0.725-0.91-1.549-1.734-2.458-2.459l-4.193,1.994c-0.647-0.347-1.334-0.632-2.049-0.849l-1.558-4.378C17.165,0.708,16.588,0.667,16,0.667s-1.166,0.041-1.737,0.105L12.707,5.15c-0.716,0.217-1.401,0.502-2.05,0.849L6.464,4.005C5.554,4.73,4.73,5.554,4.005,6.464l1.994,4.192c-0.347,0.648-0.632,1.334-0.849,2.05l-4.378,1.557C0.708,14.834,0.667,15.412,0.667,16s0.041,1.165,0.105,1.736l4.378,1.558c0.217,0.715,0.502,1.401,0.849,2.049l-1.994,4.193c0.725,0.909,1.549,1.733,2.459,2.458l4.192-1.993c0.648,0.347,1.334,0.633,2.05,0.851l1.557,4.377c0.571,0.064,1.148,0.104,1.737,0.104c0.588,0,1.165-0.04,1.736-0.104l1.558-4.377c0.715-0.218,1.399-0.504,2.049-0.851l4.193,1.993c0.909-0.725,1.733-1.549,2.458-2.458l-1.993-4.193c0.347-0.647,0.633-1.334,0.851-2.049L31.229,17.736zM16,20.871c-2.69,0-4.872-2.182-4.872-4.871c0-2.69,2.182-4.872,4.872-4.872c2.689,0,4.871,2.182,4.871,4.872C20.871,18.689,18.689,20.871,16,20.871z"></path><title>Link options.</title></g></g></g></g><g id="j_457"   ><path  stroke="#aaaaaa" id="v-7146" stroke-width="2" stroke-dasharray="30 30" fill="none" d="M 1664 1207 1344 1494" style="opacity: 1;"></path><path  fill="black" stroke="black" transform="translate(1664,1207) scale(1,1) rotate(-221.84515380859375)"></path><path  fill="#aaaaaa" stroke="#aaaaaa" id="v-7148" d="M 20 0 L 0 10 L 20 20 z" transform="translate(1322.3287603841147,1499.550551105163) scale(1,1) rotate(-41.845157623291016)" style="opacity: 1;"></path><path  id="v-7147" fill="none" d="M 1664 1207 1344 1494" style=""></path><title ></title><g ><g  id="v-7134" label-idx="0" cursor="move" transform="translate(1504, 1350.5)" style="opacity: 1;"><rect id="v-7136" fill="#111111" rx="3" ry="3" stroke="#111111" stroke-width="20px" pointer-events="none" width="103.92266082763672" height="31.531527519226074" transform="matrix(1,0,0,1,-52,-15.7)"></rect><text id="v-7135" font-size="24px" y="0.8em" xml:space="preserve" text-anchor="middle" pointer-events="none" fill="#aaaaaa" font-family="Open Sans" font-weight="normal" transform="matrix(1,0,0,1,0,-9.7)"><tspan id="v-7137"  dy="0em" x="0">Connects</tspan></text></g><g  id="v-7138" label-idx="1" cursor="move" transform="translate(1504, 1381.7)" style="opacity: 1;"><rect id="v-7140" fill="#111111" rx="3" ry="3" pointer-events="none" width="58.76031494140625" height="27.32732391357422" transform="matrix(1,0,0,1,-29.4,-13.6)"></rect><text id="v-7139" font-size="19px" y="0.8em" xml:space="preserve" text-anchor="middle" pointer-events="none" fill="#aaaaaa" font-family="Open Sans" font-weight="normal" transform="matrix(1,0,0,1,0,-7.8)"><tspan id="v-7141"  dy="0em" x="0">[HTTP]</tspan></text></g><g  id="v-7142" label-idx="2" cursor="move" transform="translate(1504, 1405.7)" style="opacity: 1;"><rect id="v-7144" fill="#111111" rx="3" ry="3" pointer-events="none"  display="none" width="0" height="0" transform="matrix(1,0,0,1,0,0)"></rect><text id="v-7143" font-size="19px" y="0.8em" display="none" xml:space="preserve" text-anchor="middle" pointer-events="none" fill="#aaaaaa" font-family="Open Sans" font-weight="normal"  transform="matrix(1,0,0,1,0,0)"><tspan id="v-7145"  dy="0em" x="0" style="fill-opacity: 0; stroke-opacity: 0;">-</tspan></text></g></g><g  display="none"></g><g  id="v-7150" display="none"><g  id="v-7131"><path  end="source" d="M 26 0 L 0 13 L 26 26 z"></path></g><g  id="v-7132"><path  end="target" d="M 26 0 L 0 13 L 26 26 z"></path></g></g><g  id="v-7149" display="none"><g  id="v-7130" transform="translate(1634.2220458984375, 1233.7071533203125) "><g  event="remove"><circle r="11"></circle><path transform="scale(.8) translate(-16, -16)" d="M24.778,21.419 19.276,15.917 24.777,10.415 21.949,7.585 16.447,13.087 10.945,7.585 8.117,10.415 13.618,15.917 8.116,21.419 10.946,24.248 16.447,18.746 21.948,24.248z"></path><title>Remove link.</title></g><g  event="link:options"><circle r="11" transform="translate(25)"></circle><path fill="white" transform="scale(.55) translate(29, -16)" d="M31.229,17.736c0.064-0.571,0.104-1.148,0.104-1.736s-0.04-1.166-0.104-1.737l-4.377-1.557c-0.218-0.716-0.504-1.401-0.851-2.05l1.993-4.192c-0.725-0.91-1.549-1.734-2.458-2.459l-4.193,1.994c-0.647-0.347-1.334-0.632-2.049-0.849l-1.558-4.378C17.165,0.708,16.588,0.667,16,0.667s-1.166,0.041-1.737,0.105L12.707,5.15c-0.716,0.217-1.401,0.502-2.05,0.849L6.464,4.005C5.554,4.73,4.73,5.554,4.005,6.464l1.994,4.192c-0.347,0.648-0.632,1.334-0.849,2.05l-4.378,1.557C0.708,14.834,0.667,15.412,0.667,16s0.041,1.165,0.105,1.736l4.378,1.558c0.217,0.715,0.502,1.401,0.849,2.049l-1.994,4.193c0.725,0.909,1.549,1.733,2.459,2.458l4.192-1.993c0.648,0.347,1.334,0.633,2.05,0.851l1.557,4.377c0.571,0.064,1.148,0.104,1.737,0.104c0.588,0,1.165-0.04,1.736-0.104l1.558-4.377c0.715-0.218,1.399-0.504,2.049-0.851l4.193,1.993c0.909-0.725,1.733-1.549,2.458-2.458l-1.993-4.193c0.347-0.647,0.633-1.334,0.851-2.049L31.229,17.736zM16,20.871c-2.69,0-4.872-2.182-4.872-4.871c0-2.69,2.182-4.872,4.872-4.872c2.689,0,4.871,2.182,4.871,4.872C20.871,18.689,18.689,20.871,16,20.871z"></path><title>Link options.</title></g></g></g></g><g id="j_458"   ><path  stroke="#aaaaaa" id="v-7168" stroke-width="2" stroke-dasharray="30 30" fill="none" d="M 1442 607 1206 1488" style="opacity: 1;"></path><path  fill="black" stroke="black" transform="translate(1442,607) scale(1,1) rotate(-255.0091705322266)"></path><path  fill="#aaaaaa" stroke="#aaaaaa" id="v-7170" d="M 20 0 L 0 10 L 20 20 z" transform="translate(1191.3403521896998,1504.4133583992632) scale(1,1) rotate(-75.00916290283203)" style="opacity: 1;"></path><path  id="v-7169" fill="none" d="M 1442 607 1206 1488" style=""></path><title ></title><g ><g  id="v-7156" label-idx="0" cursor="move" transform="translate(1324, 1047.5)" style="opacity: 1;"><rect id="v-7158" fill="#111111" rx="3" ry="3" stroke="#111111" stroke-width="20px" pointer-events="none" width="103.92266082763672" height="31.531527519226074" transform="matrix(1,0,0,1,-52,-15.7)"></rect><text id="v-7157" font-size="24px" y="0.8em" xml:space="preserve" text-anchor="middle" pointer-events="none" fill="#aaaaaa" font-family="Open Sans" font-weight="normal" transform="matrix(1,0,0,1,0,-9.7)"><tspan id="v-7159"  dy="0em" x="0">Connects</tspan></text></g><g  id="v-7160" label-idx="1" cursor="move" transform="translate(1324, 1078.7)" style="opacity: 1;"><rect id="v-7162" fill="#111111" rx="3" ry="3" pointer-events="none" width="47.26444625854492" height="27.32732391357422" transform="matrix(1,0,0,1,-23.6,-13.6)"></rect><text id="v-7161" font-size="19px" y="0.8em" xml:space="preserve" text-anchor="middle" pointer-events="none" fill="#aaaaaa" font-family="Open Sans" font-weight="normal" transform="matrix(1,0,0,1,0,-7.8)"><tspan id="v-7163"  dy="0em" x="0">[SSH]</tspan></text></g><g  id="v-7164" label-idx="2" cursor="move" transform="translate(1324, 1102.7)" style="opacity: 1;"><rect id="v-7166" fill="#111111" rx="3" ry="3" pointer-events="none"  display="none" width="0" height="0" transform="matrix(1,0,0,1,0,0)"></rect><text id="v-7165" font-size="19px" y="0.8em" display="none" xml:space="preserve" text-anchor="middle" pointer-events="none" fill="#aaaaaa" font-family="Open Sans" font-weight="normal"  transform="matrix(1,0,0,1,0,0)"><tspan id="v-7167"  dy="0em" x="0" style="fill-opacity: 0; stroke-opacity: 0;">-</tspan></text></g></g><g  display="none"></g><g  id="v-7172" display="none"><g  id="v-7153"><path  end="source" d="M 26 0 L 0 13 L 26 26 z"></path></g><g  id="v-7154"><path  end="target" d="M 26 0 L 0 13 L 26 26 z"></path></g></g><g  id="v-7171" display="none"><g  id="v-7152" transform="translate(1431.6497802734375, 645.6376953125) "><g  event="remove"><circle r="11"></circle><path transform="scale(.8) translate(-16, -16)" d="M24.778,21.419 19.276,15.917 24.777,10.415 21.949,7.585 16.447,13.087 10.945,7.585 8.117,10.415 13.618,15.917 8.116,21.419 10.946,24.248 16.447,18.746 21.948,24.248z"></path><title>Remove link.</title></g><g  event="link:options"><circle r="11" transform="translate(25)"></circle><path fill="white" transform="scale(.55) translate(29, -16)" d="M31.229,17.736c0.064-0.571,0.104-1.148,0.104-1.736s-0.04-1.166-0.104-1.737l-4.377-1.557c-0.218-0.716-0.504-1.401-0.851-2.05l1.993-4.192c-0.725-0.91-1.549-1.734-2.458-2.459l-4.193,1.994c-0.647-0.347-1.334-0.632-2.049-0.849l-1.558-4.378C17.165,0.708,16.588,0.667,16,0.667s-1.166,0.041-1.737,0.105L12.707,5.15c-0.716,0.217-1.401,0.502-2.05,0.849L6.464,4.005C5.554,4.73,4.73,5.554,4.005,6.464l1.994,4.192c-0.347,0.648-0.632,1.334-0.849,2.05l-4.378,1.557C0.708,14.834,0.667,15.412,0.667,16s0.041,1.165,0.105,1.736l4.378,1.558c0.217,0.715,0.502,1.401,0.849,2.049l-1.994,4.193c0.725,0.909,1.549,1.733,2.459,2.458l4.192-1.993c0.648,0.347,1.334,0.633,2.05,0.851l1.557,4.377c0.571,0.064,1.148,0.104,1.737,0.104c0.588,0,1.165-0.04,1.736-0.104l1.558-4.377c0.715-0.218,1.399-0.504,2.049-0.851l4.193,1.993c0.909-0.725,1.733-1.549,2.458-2.458l-1.993-4.193c0.347-0.647,0.633-1.334,0.851-2.049L31.229,17.736zM16,20.871c-2.69,0-4.872-2.182-4.872-4.871c0-2.69,2.182-4.872,4.872-4.872c2.689,0,4.871,2.182,4.871,4.872C20.871,18.689,18.689,20.871,16,20.871z"></path><title>Link options.</title></g></g></g></g><g id="j_459"   ><path  stroke="#aaaaaa" id="v-7190" stroke-width="2" stroke-dasharray="30 30" fill="none" d="M 466 607 466 887" style="opacity: 1;"></path><path  fill="black" stroke="black" transform="translate(466,607) scale(1,1) rotate(-270)"></path><path  fill="#aaaaaa" stroke="#aaaaaa" id="v-7192" d="M 20 0 L 0 10 L 20 20 z" transform="translate(456,907) scale(1,1) rotate(-90)" style="opacity: 1;"></path><path  id="v-7191" fill="none" d="M 466 607 466 887" style=""></path><title ></title><g ><g  id="v-7178" label-idx="0" cursor="move" transform="translate(466, 747)" style="opacity: 1;"><rect id="v-7180" fill="#111111" rx="3" ry="3" stroke="#111111" stroke-width="20px" pointer-events="none" width="144.09251403808594" height="31.531527519226074" transform="matrix(1,0,0,1,-72,-15.7)"></rect><text id="v-7179" font-size="24px" y="0.8em" xml:space="preserve" text-anchor="middle" pointer-events="none" fill="#aaaaaa" font-family="Open Sans" font-weight="normal" transform="matrix(1,0,0,1,0,-9.7)"><tspan id="v-7181"  dy="0em" x="0">Pushes Code</tspan></text></g><g  id="v-7182" label-idx="1" cursor="move" transform="translate(466, 778.2)" style="opacity: 1;"><rect id="v-7184" fill="#111111" rx="3" ry="3" pointer-events="none" width="0" height="0" transform="matrix(1,0,0,1,0,0)"></rect><text id="v-7183" font-size="19px" y="0.8em" display="none" xml:space="preserve" text-anchor="middle" pointer-events="none" fill="#aaaaaa" font-family="Open Sans" font-weight="normal" transform="matrix(1,0,0,1,0,0)"><tspan id="v-7185"  dy="0em" x="0" style="fill-opacity: 0; stroke-opacity: 0;">-</tspan></text></g><g  id="v-7186" label-idx="2" cursor="move" transform="translate(466, 802.2)" style="opacity: 1;"><rect id="v-7188" fill="#111111" rx="3" ry="3" pointer-events="none"  display="none" width="0" height="0" transform="matrix(1,0,0,1,0,0)"></rect><text id="v-7187" font-size="19px" y="0.8em" display="none" xml:space="preserve" text-anchor="middle" pointer-events="none" fill="#aaaaaa" font-family="Open Sans" font-weight="normal"  transform="matrix(1,0,0,1,0,0)"><tspan id="v-7189"  dy="0em" x="0" style="fill-opacity: 0; stroke-opacity: 0;">-</tspan></text></g></g><g  display="none"></g><g  id="v-7194" display="none"><g  id="v-7175"><path  end="source" d="M 26 0 L 0 13 L 26 26 z"></path></g><g  id="v-7176"><path  end="target" d="M 26 0 L 0 13 L 26 26 z"></path></g></g><g  id="v-7193" display="none"><g  id="v-7174" transform="translate(466, 647) "><g  event="remove"><circle r="11"></circle><path transform="scale(.8) translate(-16, -16)" d="M24.778,21.419 19.276,15.917 24.777,10.415 21.949,7.585 16.447,13.087 10.945,7.585 8.117,10.415 13.618,15.917 8.116,21.419 10.946,24.248 16.447,18.746 21.948,24.248z"></path><title>Remove link.</title></g><g  event="link:options"><circle r="11" transform="translate(25)"></circle><path fill="white" transform="scale(.55) translate(29, -16)" d="M31.229,17.736c0.064-0.571,0.104-1.148,0.104-1.736s-0.04-1.166-0.104-1.737l-4.377-1.557c-0.218-0.716-0.504-1.401-0.851-2.05l1.993-4.192c-0.725-0.91-1.549-1.734-2.458-2.459l-4.193,1.994c-0.647-0.347-1.334-0.632-2.049-0.849l-1.558-4.378C17.165,0.708,16.588,0.667,16,0.667s-1.166,0.041-1.737,0.105L12.707,5.15c-0.716,0.217-1.401,0.502-2.05,0.849L6.464,4.005C5.554,4.73,4.73,5.554,4.005,6.464l1.994,4.192c-0.347,0.648-0.632,1.334-0.849,2.05l-4.378,1.557C0.708,14.834,0.667,15.412,0.667,16s0.041,1.165,0.105,1.736l4.378,1.558c0.217,0.715,0.502,1.401,0.849,2.049l-1.994,4.193c0.725,0.909,1.549,1.733,2.459,2.458l4.192-1.993c0.648,0.347,1.334,0.633,2.05,0.851l1.557,4.377c0.571,0.064,1.148,0.104,1.737,0.104c0.588,0,1.165-0.04,1.736-0.104l1.558-4.377c0.715-0.218,1.399-0.504,2.049-0.851l4.193,1.993c0.909-0.725,1.733-1.549,2.458-2.458l-1.993-4.193c0.347-0.647,0.633-1.334,0.851-2.049L31.229,17.736zM16,20.871c-2.69,0-4.872-2.182-4.872-4.871c0-2.69,2.182-4.872,4.872-4.872c2.689,0,4.871,2.182,4.871,4.872C20.871,18.689,18.689,20.871,16,20.871z"></path><title>Link options.</title></g></g></g></g><g id="j_460"   ><path  stroke="#aaaaaa" id="v-7215" stroke-width="2" stroke-dasharray="30 30" fill="none" d="M 462 1207 437 2087" style="opacity: 1;"></path><path  fill="black" stroke="black" transform="translate(462,1207) scale(1,1) rotate(-268.3452453613281)"></path><path  fill="#aaaaaa" stroke="#aaaaaa" id="v-7217" d="M 20 0 L 0 10 L 20 20 z" transform="translate(426.0041585514935,2106.7112111241354) scale(1,1) rotate(-88.34524536132812)" style="opacity: 1;"></path><path  id="v-7216" fill="none" d="M 462 1207 437 2087" style=""></path><title ></title><g ><g  id="v-7202" label-idx="0" cursor="move" transform="translate(449.5, 1647)" style="opacity: 1;"><rect id="v-7204" fill="#111111" rx="3" ry="3" stroke="#111111" stroke-width="20px" pointer-events="none" width="106.9772720336914" height="60.331525802612305" transform="matrix(1,0,0,1,-53.5,-30.1)"></rect><text id="v-7203" font-size="24px" y="0.8em" xml:space="preserve" text-anchor="middle" pointer-events="none" fill="#aaaaaa" font-family="Open Sans" font-weight="normal" transform="matrix(1,0,0,1,0,-24.1)"><tspan id="v-7205"  dy="0em" x="0">Publishes</tspan><tspan id="v-7206"  dy="1.2em" x="0">Software</tspan></text></g><g  id="v-7207" label-idx="1" cursor="move" transform="translate(449.5, 1690.2)" style="opacity: 1;"><rect id="v-7209" fill="#111111" rx="3" ry="3" pointer-events="none" width="0" height="0" transform="matrix(1,0,0,1,0,0)"></rect><text id="v-7208" font-size="19px" y="0.8em" display="none" xml:space="preserve" text-anchor="middle" pointer-events="none" fill="#aaaaaa" font-family="Open Sans" font-weight="normal" transform="matrix(1,0,0,1,0,0)"><tspan id="v-7210"  dy="0em" x="0" style="fill-opacity: 0; stroke-opacity: 0;">-</tspan></text></g><g  id="v-7211" label-idx="2" cursor="move" transform="translate(449.5, 1714.2)" style="opacity: 1;"><rect id="v-7213" fill="#111111" rx="3" ry="3" pointer-events="none"  display="none" width="0" height="0" transform="matrix(1,0,0,1,0,0)"></rect><text id="v-7212" font-size="19px" y="0.8em" display="none" xml:space="preserve" text-anchor="middle" pointer-events="none" fill="#aaaaaa" font-family="Open Sans" font-weight="normal"  transform="matrix(1,0,0,1,0,0)"><tspan id="v-7214"  dy="0em" x="0" style="fill-opacity: 0; stroke-opacity: 0;">-</tspan></text></g></g><g  display="none"></g><g  id="v-7219" display="none"><g  id="v-7199"><path  end="source" d="M 26 0 L 0 13 L 26 26 z"></path></g><g  id="v-7200"><path  end="target" d="M 26 0 L 0 13 L 26 26 z"></path></g></g><g  id="v-7218" display="none"><g  id="v-7198" transform="translate(460.86407470703125, 1246.98388671875) "><g  event="remove"><circle r="11"></circle><path transform="scale(.8) translate(-16, -16)" d="M24.778,21.419 19.276,15.917 24.777,10.415 21.949,7.585 16.447,13.087 10.945,7.585 8.117,10.415 13.618,15.917 8.116,21.419 10.946,24.248 16.447,18.746 21.948,24.248z"></path><title>Remove link.</title></g><g  event="link:options"><circle r="11" transform="translate(25)"></circle><path fill="white" transform="scale(.55) translate(29, -16)" d="M31.229,17.736c0.064-0.571,0.104-1.148,0.104-1.736s-0.04-1.166-0.104-1.737l-4.377-1.557c-0.218-0.716-0.504-1.401-0.851-2.05l1.993-4.192c-0.725-0.91-1.549-1.734-2.458-2.459l-4.193,1.994c-0.647-0.347-1.334-0.632-2.049-0.849l-1.558-4.378C17.165,0.708,16.588,0.667,16,0.667s-1.166,0.041-1.737,0.105L12.707,5.15c-0.716,0.217-1.401,0.502-2.05,0.849L6.464,4.005C5.554,4.73,4.73,5.554,4.005,6.464l1.994,4.192c-0.347,0.648-0.632,1.334-0.849,2.05l-4.378,1.557C0.708,14.834,0.667,15.412,0.667,16s0.041,1.165,0.105,1.736l4.378,1.558c0.217,0.715,0.502,1.401,0.849,2.049l-1.994,4.193c0.725,0.909,1.549,1.733,2.459,2.458l4.192-1.993c0.648,0.347,1.334,0.633,2.05,0.851l1.557,4.377c0.571,0.064,1.148,0.104,1.737,0.104c0.588,0,1.165-0.04,1.736-0.104l1.558-4.377c0.715-0.218,1.399-0.504,2.049-0.851l4.193,1.993c0.909-0.725,1.733-1.549,2.458-2.458l-1.993-4.193c0.347-0.647,0.633-1.334,0.851-2.049L31.229,17.736zM16,20.871c-2.69,0-4.872-2.182-4.872-4.871c0-2.69,2.182-4.872,4.872-4.872c2.689,0,4.871,2.182,4.871,4.872C20.871,18.689,18.689,20.871,16,20.871z"></path><title>Link options.</title></g></g></g></g><g id="j_461"   ><path  stroke="#aaaaaa" id="v-7237" stroke-width="2" stroke-dasharray="30 30" fill="none" d="M 640 1207 972 1494" style="opacity: 1;"></path><path  fill="black" stroke="black" transform="translate(640,1207) scale(1,1) rotate(40.84515380859375)"></path><path  fill="#aaaaaa" stroke="#aaaaaa" id="v-7239" d="M 20 0 L 0 10 L 20 20 z" transform="translate(980.4598058629908,1514.5648076087948) scale(1,1) rotate(-139.1548309326172)" style="opacity: 1;"></path><path  id="v-7238" fill="none" d="M 640 1207 972 1494" style=""></path><title ></title><g ><g  id="v-7225" label-idx="0" cursor="move" transform="translate(806, 1350.5)" style="opacity: 1;"><rect id="v-7227" fill="#111111" rx="3" ry="3" stroke="#111111" stroke-width="20px" pointer-events="none" width="123.20287322998047" height="31.531527519226074" transform="matrix(1,0,0,1,-61.6,-15.7)"></rect><text id="v-7226" font-size="24px" y="0.8em" xml:space="preserve" text-anchor="middle" pointer-events="none" fill="#aaaaaa" font-family="Open Sans" font-weight="normal" transform="matrix(1,0,0,1,0,-9.7)"><tspan id="v-7228"  dy="0em" x="0">Creates OS</tspan></text></g><g  id="v-7229" label-idx="1" cursor="move" transform="translate(806, 1381.7)" style="opacity: 1;"><rect id="v-7231" fill="#111111" rx="3" ry="3" pointer-events="none" width="0" height="0" transform="matrix(1,0,0,1,0,0)"></rect><text id="v-7230" font-size="19px" y="0.8em" display="none" xml:space="preserve" text-anchor="middle" pointer-events="none" fill="#aaaaaa" font-family="Open Sans" font-weight="normal" transform="matrix(1,0,0,1,0,0)"><tspan id="v-7232"  dy="0em" x="0" style="fill-opacity: 0; stroke-opacity: 0;">-</tspan></text></g><g  id="v-7233" label-idx="2" cursor="move" transform="translate(806, 1405.7)" style="opacity: 1;"><rect id="v-7235" fill="#111111" rx="3" ry="3" pointer-events="none"  display="none" width="0" height="0" transform="matrix(1,0,0,1,0,0)"></rect><text id="v-7234" font-size="19px" y="0.8em" display="none" xml:space="preserve" text-anchor="middle" pointer-events="none" fill="#aaaaaa" font-family="Open Sans" font-weight="normal"  transform="matrix(1,0,0,1,0,0)"><tspan id="v-7236"  dy="0em" x="0" style="fill-opacity: 0; stroke-opacity: 0;">-</tspan></text></g></g><g  display="none"></g><g  id="v-7241" display="none"><g  id="v-7222"><path  end="source" d="M 26 0 L 0 13 L 26 26 z"></path></g><g  id="v-7223"><path  end="target" d="M 26 0 L 0 13 L 26 26 z"></path></g></g><g  id="v-7240" display="none"><g  id="v-7221" transform="translate(670.2606201171875, 1233.1590576171875) "><g  event="remove"><circle r="11"></circle><path transform="scale(.8) translate(-16, -16)" d="M24.778,21.419 19.276,15.917 24.777,10.415 21.949,7.585 16.447,13.087 10.945,7.585 8.117,10.415 13.618,15.917 8.116,21.419 10.946,24.248 16.447,18.746 21.948,24.248z"></path><title>Remove link.</title></g><g  event="link:options"><circle r="11" transform="translate(25)"></circle><path fill="white" transform="scale(.55) translate(29, -16)" d="M31.229,17.736c0.064-0.571,0.104-1.148,0.104-1.736s-0.04-1.166-0.104-1.737l-4.377-1.557c-0.218-0.716-0.504-1.401-0.851-2.05l1.993-4.192c-0.725-0.91-1.549-1.734-2.458-2.459l-4.193,1.994c-0.647-0.347-1.334-0.632-2.049-0.849l-1.558-4.378C17.165,0.708,16.588,0.667,16,0.667s-1.166,0.041-1.737,0.105L12.707,5.15c-0.716,0.217-1.401,0.502-2.05,0.849L6.464,4.005C5.554,4.73,4.73,5.554,4.005,6.464l1.994,4.192c-0.347,0.648-0.632,1.334-0.849,2.05l-4.378,1.557C0.708,14.834,0.667,15.412,0.667,16s0.041,1.165,0.105,1.736l4.378,1.558c0.217,0.715,0.502,1.401,0.849,2.049l-1.994,4.193c0.725,0.909,1.549,1.733,2.459,2.458l4.192-1.993c0.648,0.347,1.334,0.633,2.05,0.851l1.557,4.377c0.571,0.064,1.148,0.104,1.737,0.104c0.588,0,1.165-0.04,1.736-0.104l1.558-4.377c0.715-0.218,1.399-0.504,2.049-0.851l4.193,1.993c0.909-0.725,1.733-1.549,2.458-2.458l-1.993-4.193c0.347-0.647,0.633-1.334,0.851-2.049L31.229,17.736zM16,20.871c-2.69,0-4.872-2.182-4.872-4.871c0-2.69,2.182-4.872,4.872-4.872c2.689,0,4.871,2.182,4.871,4.872C20.871,18.689,18.689,20.871,16,20.871z"></path><title>Link options.</title></g></g></g></g></g><defs id="v-4"></defs></svg>